<svg width="24" height="24" viewBox="0 0 24 24" fill="none" xmlns="http://www.w3.org/2000/svg">
<g id="Frame 1321315940" clip-path="url(#clip0_1_2053)">
<path id="Rectangle 19183" d="M0 3.6C0 1.61177 1.61178 0 3.6 0H20.4C22.3882 0 24 1.61178 24 3.6V20.4C24 22.3882 22.3882 24 20.4 24H3.6C1.61177 24 0 22.3882 0 20.4V3.6Z" fill="#FCCA46"/>
<path id="Subtract" fill-rule="evenodd" clip-rule="evenodd" d="M11.9585 2.34125C17.1216 2.34125 21.3352 6.40659 21.573 11.5109L15.246 11.247L18.8937 7.23766L18.437 6.7809L14.4339 10.4223L14.1675 3.79291H13.5268L13.2603 10.4223L9.2573 6.7809L8.80054 7.23766L12.4102 11.2026L5.77576 11.2679C2.24037 11.0953 3.12424 7.4688 4.95774 5.36096C6.71263 3.50166 9.20007 2.34125 11.9585 2.34125ZM11.9585 21.5912C6.77241 21.5912 2.54428 17.4896 2.34119 12.3532L12.4102 12.4524L8.80054 16.4173L9.2573 16.8741L13.2603 13.2327L13.5268 19.8621H14.1675L14.4339 13.2327L18.437 16.8741L18.8937 16.4173L15.246 12.408L21.5819 12.1437C21.4873 17.3776 17.215 21.5912 11.9585 21.5912Z" fill="#233D4D"/>
</g>
<defs>
<clipPath id="clip0_1_2053">
<rect width="24" height="24" fill="white"/>
</clipPath>
</defs>
</svg>
