<svg width="16" height="16" viewBox="0 0 16 16" fill="none" xmlns="http://www.w3.org/2000/svg">
<g id="Help">
<path id="icon" opacity="0.4" fill-rule="evenodd" clip-rule="evenodd" d="M8.33301 2.66642C5.57158 2.66642 3.33301 4.905 3.33301 7.66642C3.33301 10.4278 5.57158 12.6664 8.33301 12.6664C11.0944 12.6664 13.333 10.4278 13.333 7.66642C13.333 4.905 11.0944 2.66642 8.33301 2.66642ZM2.66634 7.66642C2.66634 4.53681 5.20339 1.99976 8.33301 1.99976C11.4626 1.99976 13.9997 4.53681 13.9997 7.66642C13.9997 10.796 11.4626 13.3331 8.33301 13.3331C5.20339 13.3331 2.66634 10.796 2.66634 7.66642Z" fill="#EBEBEB"/>
<g id="icon_2">
<path d="M8.33252 4.66609C7.41204 4.66609 6.66585 5.41228 6.66585 6.33276V6.66609H7.33252V6.33276C7.33252 5.78047 7.78023 5.33276 8.33252 5.33276C8.8848 5.33276 9.33252 5.78047 9.33252 6.33276V6.44714C9.33252 6.71236 9.22716 6.96671 9.03962 7.15425L8.48734 7.70653C8.17478 8.01909 7.99918 8.44302 7.99918 8.88504V8.99943H8.66585V8.88504C8.66585 8.61983 8.77121 8.36547 8.95874 8.17794L9.51103 7.62565C9.82359 7.31309 9.99918 6.88917 9.99918 6.44714V6.33276C9.99918 5.41228 9.25299 4.66609 8.33252 4.66609Z" fill="#F5F5F5"/>
<path d="M8.33252 10.8328C8.60866 10.8328 8.83252 10.6089 8.83252 10.3328C8.83252 10.0566 8.60866 9.83276 8.33252 9.83276C8.05638 9.83276 7.83252 10.0566 7.83252 10.3328C7.83252 10.6089 8.05638 10.8328 8.33252 10.8328Z" fill="#F5F5F5"/>
</g>
</g>
</svg>
