<svg width="22" height="22" viewBox="0 0 22 22" fill="none" xmlns="http://www.w3.org/2000/svg">
<g id="devicon:slack" clip-path="url(#clip0_14_5)">
<path id="Vector" d="M4.97156 13.7437C4.97156 14.9462 3.99079 15.9285 2.78805 15.9285C1.58547 15.9285 0.603394 14.9462 0.603394 13.7437C0.603394 12.5411 1.58564 11.5588 2.78821 11.5588H4.97172L4.97156 13.7437ZM6.07225 13.7437C6.07225 12.5411 7.05449 11.5588 8.25707 11.5588C9.45965 11.5588 10.4419 12.5409 10.4419 13.7437V19.2127C10.4419 20.4153 9.45981 21.3975 8.25707 21.3975C7.05449 21.3975 6.07225 20.4153 6.07225 19.2127V13.7437Z" fill="#DE1C59"/>
<path id="Vector_2" d="M8.25707 4.9707C7.05449 4.9707 6.07225 3.98994 6.07225 2.7872C6.07225 1.58462 7.05449 0.602539 8.25707 0.602539C9.45965 0.602539 10.4419 1.58478 10.4419 2.78736V4.97087L8.25707 4.9707ZM8.25707 6.0714C9.45965 6.0714 10.4419 7.05364 10.4419 8.25622C10.4419 9.4588 9.45981 10.441 8.25707 10.441H2.78805C1.58547 10.441 0.603394 9.45896 0.603394 8.25622C0.603394 7.05364 1.58564 6.0714 2.78821 6.0714H8.25707Z" fill="#35C5F0"/>
<path id="Vector_3" d="M17.0283 8.25622C17.0283 7.05364 18.0091 6.0714 19.2118 6.0714C20.4144 6.0714 21.3966 7.05364 21.3966 8.25622C21.3966 9.4588 20.4144 10.441 19.2118 10.441H17.0283V8.25622ZM15.9276 8.25622C15.9276 9.4588 14.9454 10.441 13.7428 10.441C12.5402 10.441 11.558 9.45896 11.558 8.25622V2.7872C11.558 1.58462 12.5401 0.602539 13.7428 0.602539C14.9454 0.602539 15.9276 1.58478 15.9276 2.78736V8.25622Z" fill="#2EB57D"/>
<path id="Vector_4" d="M13.7428 17.0292C14.9454 17.0292 15.9276 18.0099 15.9276 19.2127C15.9276 20.4153 14.9454 21.3975 13.7428 21.3975C12.5402 21.3975 11.558 20.4153 11.558 19.2127V17.0292H13.7428ZM13.7428 15.9285C12.5402 15.9285 11.558 14.9462 11.558 13.7437C11.558 12.5411 12.5401 11.5588 13.7428 11.5588H19.2118C20.4144 11.5588 21.3966 12.5409 21.3966 13.7437C21.3966 14.9462 20.4144 15.9285 19.2118 15.9285H13.7428Z" fill="#EBB02E"/>
</g>
<defs>
<clipPath id="clip0_14_5">
<rect width="21" height="21" fill="white" transform="translate(0.5 0.5)"/>
</clipPath>
</defs>
</svg>
